<?xml version="1.0" standalone="no"?>
<!DOCTYPE svg PUBLIC "-//W3C//DTD SVG 1.1//EN" "http://www.w3.org/Graphics/SVG/1.1/DTD/svg11.dtd" >
<svg xmlns="http://www.w3.org/2000/svg">
<metadata></metadata>
<defs>
<font id="swis721_ltex_btlight" horiz-adv-x="1327" >
<font-face units-per-em="2048" ascent="1638" descent="-410" />
<missing-glyph horiz-adv-x="664" />
<glyph horiz-adv-x="2048" />
<glyph horiz-adv-x="2048" />
<glyph unicode="&#xd;" horiz-adv-x="664" />
<glyph unicode=" "  horiz-adv-x="664" />
<glyph unicode="&#x09;" horiz-adv-x="664" />
<glyph unicode="&#xa0;" horiz-adv-x="664" />
<glyph unicode="!" horiz-adv-x="639" d="M238 0v180h165v-180h-165zM238 938v541h165v-541l-36 -592h-93z" />
<glyph unicode="&#x22;" horiz-adv-x="569" d="M98 881v553h101v-553h-101zM371 881v553h102v-553h-102z" />
<glyph unicode="#" horiz-adv-x="1575" d="M117 479l39 109h325l101 276h-353l35 107h354l173 483h127l-168 -483h264l172 483h127l-170 -483h315l-37 -107h-317l-98 -276h340l-37 -109h-340l-170 -479h-129l172 479h-269l-172 -479h-127l170 479h-327zM612 588h267l96 276h-266z" />
<glyph unicode="$" d="M78 451h143q14 -151 115 -234.5t276 -89.5v543q-249 29 -372 122.5t-123 254.5q0 171 133 277.5t362 117.5v160h107v-160q242 -12 372 -112t144 -286h-137q-17 126 -115.5 197.5t-263.5 77.5v-528q300 -37 415 -120.5t115 -254.5q0 -191 -136.5 -298t-393.5 -118v-182 h-107v182q-240 8 -379.5 125.5t-154.5 325.5zM264 1061q0 -111 77.5 -167.5t270.5 -84.5v514q-162 -8 -255 -78.5t-93 -183.5zM719 127q185 5 286 75.5t101 194.5q0 120 -78.5 173.5t-308.5 78.5v-522z" />
<glyph unicode="%" horiz-adv-x="1718" d="M94 1087q0 192 85 292t247 100t246 -99.5t84 -292.5q0 -192 -84 -292.5t-246 -100.5q-161 0 -246.5 101t-85.5 292zM209 1087q0 -144 55 -219t162 -75t161 74t54 220q0 147 -54 220t-161 73t-162 -74t-55 -219zM367 -39l864 1518h121l-865 -1518h-120zM963 354 q0 192 85 293t246 101q162 0 246 -100.5t84 -293.5t-84 -293t-246 -100q-161 0 -246 101t-85 292zM1077 354q0 -144 55 -218.5t162 -74.5q108 0 161.5 73.5t53.5 219.5t-53.5 219.5t-161.5 73.5q-107 0 -162 -74t-55 -219z" />
<glyph unicode="&#x26;" horiz-adv-x="1524" d="M109 399q0 140 88.5 247t287.5 206q-90 89 -131 164t-41 151q0 143 92 227.5t246 84.5q148 0 242 -83t94 -212q0 -106 -66 -190.5t-216 -168.5l466 -432q41 81 66 156.5t35 148.5h135q-6 -101 -39.5 -201.5t-93.5 -199.5l299 -297h-184l-199 190q-109 -115 -243 -172 t-294 -57q-241 0 -392.5 123t-151.5 315zM256 406q0 -138 109.5 -228t281.5 -90q131 0 239.5 47t205.5 146l-510 477q-175 -85 -250.5 -167.5t-75.5 -184.5zM442 1176q0 -61 44 -128t122 -126q127 65 185.5 127.5t58.5 134.5q0 75 -57 123.5t-148 48.5q-92 0 -148.5 -49.5 t-56.5 -130.5z" />
<glyph unicode="'" horiz-adv-x="295" d="M98 881v553h101v-553h-101z" />
<glyph unicode="(" horiz-adv-x="627" d="M125 545q0 225 92.5 451.5t290.5 482.5h106q-172 -251 -252.5 -477t-80.5 -457t80.5 -458.5t252.5 -477.5h-106q-197 255 -290 482.5t-93 453.5z" />
<glyph unicode=")" horiz-adv-x="627" d="M10 -391q173 252 254.5 479t81.5 457q0 229 -81 455t-255 479h107q197 -256 290 -482.5t93 -451.5q0 -226 -93 -453.5t-290 -482.5h-107z" />
<glyph unicode="*" horiz-adv-x="1024" d="M164 1227l33 98l264 -84v277h102v-277l264 84l33 -98l-264 -86l164 -223l-86 -62l-162 223l-162 -223l-86 62l164 223z" />
<glyph unicode="+" horiz-adv-x="1706" d="M254 561v98h551v562h98v-562h549v-98h-549v-561h-98v561h-551z" />
<glyph unicode="," horiz-adv-x="664" d="M250 0v180h166v-239q0 -115 -37.5 -172.5t-128.5 -87.5v94q39 20 56.5 51.5t17.5 85.5v88h-74z" />
<glyph unicode="-" horiz-adv-x="948" d="M113 477v131h723v-131h-723z" />
<glyph unicode="." horiz-adv-x="664" d="M250 0v180h166v-180h-166z" />
<glyph unicode="/" horiz-adv-x="569" d="M-18 -190l577 1708h113l-578 -1708h-112z" />
<glyph unicode="0" d="M104 721q0 368 144 563t416 195q271 0 415 -195t144 -563q0 -369 -144.5 -564.5t-414.5 -195.5q-271 0 -415.5 195.5t-144.5 564.5zM252 721q0 -309 103 -463t309 -154q205 0 308 154t103 463t-103 462.5t-308 153.5q-206 0 -309 -153.5t-103 -462.5z" />
<glyph unicode="1" d="M211 1081v123h145q172 0 243 62.5t73 211.5l119 1v-1479h-144v1081h-436z" />
<glyph unicode="2" d="M100 0v8q0 108 36.5 197.5t113.5 171.5q38 40 124 96t285 168q33 19 93 52q157 86 194 122q54 51 76 101.5t22 123.5q0 142 -97.5 222.5t-270.5 80.5q-200 0 -307 -98.5t-107 -283.5h-141v8q0 238 147.5 375t403.5 137q240 0 380 -120.5t140 -324.5q0 -143 -77 -243.5 t-357 -255.5q-307 -170 -396.5 -246t-97.5 -147l916 -1v-143h-1080z" />
<glyph unicode="3" d="M101 459l151 -1q3 -175 108.5 -265.5t307.5 -90.5q195 0 299 80t104 230q0 149 -104.5 213.5t-350.5 64.5h-53v131h35q216 0 315 62.5t99 197.5q0 134 -89 201.5t-266 67.5q-166 0 -261.5 -95t-98.5 -261l-150 -1q16 238 148.5 362t372.5 124q235 0 364 -100.5 t129 -282.5q0 -130 -64.5 -216t-185.5 -116q148 -17 229 -109.5t81 -242.5q0 -214 -145 -332.5t-406 -118.5q-273 0 -419.5 128.5t-149.5 369.5z" />
<glyph unicode="4" d="M82 375v145l766 953h137v-965h252v-133h-252v-375h-143v375h-760zM225 508h617v766z" />
<glyph unicode="5" d="M100 375h150q23 -136 123 -204.5t276 -68.5q195 0 310.5 99.5t115.5 265.5q0 172 -106.5 262t-309.5 90q-154 0 -253 -48.5t-121 -133.5h-140l134 805h843v-144h-733l-80 -462q77 61 173 91.5t210 30.5q244 0 387.5 -130t143.5 -353q0 -238 -156 -376t-426 -138 q-232 0 -368.5 104.5t-172.5 309.5z" />
<glyph unicode="6" d="M102 711q0 388 147.5 578t448.5 190q214 0 351 -102.5t149 -270.5h-145q-22 117 -113.5 177t-247.5 60q-222 0 -330 -143.5t-108 -437.5v-41q70 115 189 174t280 59q239 0 379.5 -132.5t140.5 -356.5q0 -232 -153.5 -368t-415.5 -136q-293 0 -432.5 182.5t-139.5 567.5z M279 463q0 -165 108.5 -262t294.5 -97q193 0 304.5 97.5t111.5 265.5q0 166 -103 259t-286 93q-201 0 -315.5 -95t-114.5 -261z" />
<glyph unicode="7" d="M115 1298v144h1061v-168q-255 -316 -403 -631t-195 -643h-177q69 360 229 681.5t417 616.5h-932z" />
<glyph unicode="8" d="M102 397q0 161 78.5 257.5t237.5 131.5q-123 45 -185.5 127.5t-62.5 200.5q0 170 131.5 267.5t362.5 97.5q230 0 361.5 -97.5t131.5 -267.5q0 -118 -62.5 -200.5t-185.5 -127.5q159 -35 237.5 -131.5t78.5 -257.5q0 -206 -147 -321t-414 -115q-268 0 -415 115t-147 321z M250 414q0 -149 107 -228.5t307 -79.5q199 0 306 79.5t107 228.5q0 142 -110.5 224.5t-302.5 82.5t-303 -83t-111 -224zM315 1096q0 -119 88.5 -179.5t260.5 -60.5t260 60.5t88 179.5q0 123 -87.5 185t-260.5 62t-261 -62t-88 -185z" />
<glyph unicode="9" d="M82 977q0 231 154 366.5t417 135.5q293 0 432.5 -182.5t139.5 -565.5q0 -389 -147.5 -579.5t-448.5 -190.5q-214 0 -351.5 103.5t-150.5 271.5h147q22 -118 113.5 -179t247.5 -61q221 0 329.5 144.5t108.5 439.5v41q-69 -115 -187.5 -174.5t-281.5 -59.5 q-239 0 -380.5 133t-141.5 357zM229 975q0 -167 103 -259.5t289 -92.5q202 0 314 96t112 270q0 157 -110 252.5t-292 95.5q-193 0 -304.5 -97t-111.5 -265z" />
<glyph unicode=":" horiz-adv-x="639" d="M238 0v180h165v-180h-165zM238 840v180h165v-180h-165z" />
<glyph unicode=";" horiz-adv-x="639" d="M238 0v180h165v-239q0 -115 -37 -172.5t-128 -87.5v94q40 21 57.5 53t17.5 84v88h-75zM238 840v180h165v-180h-165z" />
<glyph unicode="&#x3c;" horiz-adv-x="1706" d="M264 569v82l1178 484v-109l-1022 -416l1022 -413v-109z" />
<glyph unicode="=" horiz-adv-x="1706" d="M254 375v98h1198v-98h-1198zM254 748v98h1198v-98h-1198z" />
<glyph unicode="&#x3e;" horiz-adv-x="1706" d="M264 88v109l1022 413l-1022 416v109l1178 -484v-82z" />
<glyph unicode="?" horiz-adv-x="1200" d="M47 1010v26q0 223 138.5 352.5t379.5 129.5q242 0 383.5 -120t141.5 -323q0 -69 -17 -126.5t-51 -104.5q-55 -79 -213 -193q-44 -32 -66 -49q-68 -52 -93 -98t-25 -115q0 -3 -2 -10t-2 -10t0.5 -5.5t3.5 -7.5h-166v60q0 151 189 298l1 1q21 16 61 46q222 168 222 316 q0 140 -97 221.5t-264 81.5q-169 0 -269.5 -99.5t-100.5 -266.5v-4h-154zM459 0v180h166v-180h-166z" />
<glyph unicode="@" horiz-adv-x="2048" d="M117 537q0 204 86 381.5t252 314.5q132 109 298.5 165t360.5 56q162 0 308 -44t249 -124q129 -99 194.5 -228t65.5 -280q0 -171 -62 -309.5t-181 -232.5q-70 -54 -149 -82.5t-161 -28.5q-97 0 -144.5 37.5t-47.5 113.5q0 4 1 14t1 15q-51 -87 -127 -133.5t-168 -46.5 q-153 0 -233 83.5t-80 244.5q0 230 135 388t329 158q94 0 158 -41t96 -122l60 125h94l-139 -562q-10 -44 -13.5 -62.5t-3.5 -29.5q0 -43 28.5 -67.5t78.5 -24.5q52 0 106.5 21t104.5 61q97 77 151 204.5t54 282.5q0 254 -198 417t-509 163q-175 0 -320 -49.5t-262 -149.5 q-147 -126 -222 -290.5t-75 -362.5q0 -174 60 -305t184 -232q102 -82 244 -128t301 -46q171 0 334.5 49.5t300.5 143.5l39 -55q-147 -111 -311 -166.5t-343 -55.5q-191 0 -347 46.5t-275 138.5q-155 118 -229 273.5t-74 361.5zM702 444q0 -111 55 -173t152 -62 q107 0 189.5 71.5t111.5 188.5l62 248q-18 93 -75.5 145.5t-139.5 52.5q-154 0 -254.5 -133.5t-100.5 -337.5z" />
<glyph unicode="A" horiz-adv-x="1561" d="M16 0l682 1479h170l674 -1479h-149l-207 457h-809l-209 -457h-152zM442 600h678l-338 756z" />
<glyph unicode="B" horiz-adv-x="1518" d="M174 0v1479h719q229 0 347 -94.5t118 -278.5q0 -118 -57.5 -199t-174.5 -127q140 -27 213.5 -117t73.5 -233q0 -220 -127.5 -325t-394.5 -105h-717zM324 147h553q202 0 292.5 64t90.5 205q0 154 -84 224.5t-267 70.5h-585v-564zM324 844h524q195 0 276.5 58t81.5 192 q0 132 -80 190.5t-264 58.5h-538v-499z" />
<glyph unicode="C" horiz-adv-x="1659" d="M102 739q0 363 207 571t570 208q286 0 468 -139t218 -384h-150q-43 182 -183 280.5t-355 98.5q-291 0 -458 -169.5t-167 -465.5q0 -289 162 -461t434 -172q224 0 381.5 121.5t202.5 327.5h157q-51 -274 -249 -434t-488 -160q-341 0 -545.5 212t-204.5 566z" />
<glyph unicode="D" horiz-adv-x="1659" d="M174 0v1479h539q252 0 383 -31t227 -105q118 -92 175.5 -241t57.5 -363t-58 -363t-179 -243q-93 -72 -223.5 -102.5t-382.5 -30.5h-539zM322 141h391q194 0 301.5 22t183.5 73q106 70 156.5 194.5t50.5 319.5q0 185 -51 309t-156 194q-76 50 -186 71.5t-332 21.5h-358 v-1205z" />
<glyph unicode="E" horiz-adv-x="1407" d="M174 0v1479h1137v-138h-989v-518h913v-139h-913v-545h989v-139h-1137z" />
<glyph unicode="F" horiz-adv-x="1335" d="M174 0v1479h1094v-140h-946v-510h843v-145h-843v-684h-148z" />
<glyph unicode="G" horiz-adv-x="1702" d="M102 739q0 363 207 571t570 208q278 0 459.5 -140t203.5 -370h-156q-35 178 -166.5 271t-349.5 93q-287 0 -452.5 -169t-165.5 -464q0 -291 165 -463t443 -172q234 0 395.5 135t161.5 324v74h-465v129h615v-766h-119l-16 268q-77 -149 -224 -228t-350 -79 q-344 0 -550 211t-206 567z" />
<glyph unicode="H" horiz-adv-x="1608" d="M174 0v1479h148v-617h962v617h148v-1479h-148v721h-962v-721h-148z" />
<glyph unicode="I" horiz-adv-x="516" d="M184 0v1479h148v-1479h-148z" />
<glyph unicode="J" horiz-adv-x="1210" d="M92 438q0 24 0.5 35.5t1.5 21.5l148 1q0 -2 -1 -7q-3 -42 -3 -63q0 -163 80.5 -245.5t238.5 -82.5q177 0 251.5 89.5t74.5 308.5v983h147v-955q0 -177 -18.5 -256.5t-63.5 -138.5q-61 -81 -157 -124.5t-216 -43.5q-238 0 -360.5 121t-122.5 356z" />
<glyph unicode="K" horiz-adv-x="1460" d="M174 0v1479h148v-809l915 809h205l-697 -619l697 -860h-189l-618 764l-313 -275v-489h-148z" />
<glyph unicode="L" horiz-adv-x="1309" d="M174 0v1479h148v-1340h929v-139h-1077z" />
<glyph unicode="M" horiz-adv-x="2062" d="M176 0v1479h236l624 -1342l633 1342h217v-1479h-145l6 1352l-627 -1352h-170l-643 1352l15 -1352h-146z" />
<glyph unicode="N" horiz-adv-x="1716" d="M174 0v1479h188l1035 -1327v1327h143v-1479h-197l-1026 1327v-1327h-143z" />
<glyph unicode="O" horiz-adv-x="1759" d="M102 739q0 363 207 571t570 208q362 0 570 -208t208 -571q0 -362 -208 -570t-570 -208q-363 0 -570 208t-207 570zM252 739q0 -297 166.5 -466t460.5 -169q293 0 459.5 169t166.5 466q0 298 -166.5 466.5t-459.5 168.5q-294 0 -460.5 -168.5t-166.5 -466.5z" />
<glyph unicode="P" horiz-adv-x="1407" d="M174 0v1479h602q277 0 411 -107.5t134 -329.5q0 -221 -134 -328.5t-411 -107.5h-454v-606h-148zM322 750h428q235 0 325 66t90 228q0 164 -90.5 230.5t-324.5 66.5h-428v-591z" />
<glyph unicode="Q" horiz-adv-x="1759" d="M102 739q0 363 207 571t570 208q362 0 570 -208t208 -571q0 -189 -59 -336.5t-181 -261.5l221 -176l-94 -104l-239 196q-91 -49 -195.5 -72.5t-230.5 -23.5q-363 0 -570 208t-207 570zM252 739q0 -297 166.5 -466t460.5 -169q102 0 179 15t124 43l-178 143l98 109 l211 -181q97 97 144.5 221.5t47.5 284.5q0 298 -166.5 466.5t-459.5 168.5q-294 0 -460.5 -168.5t-166.5 -466.5z" />
<glyph unicode="R" horiz-adv-x="1550" d="M174 0v1479h709q264 0 397 -100t133 -298q0 -147 -61.5 -235.5t-194.5 -132.5q113 -18 161.5 -75t65.5 -206q7 -57 14 -158q14 -213 58 -274h-172q-28 85 -37 237.5t-14 194.5q-14 110 -79.5 156.5t-209.5 46.5h-622v-635h-148zM322 774h544q212 0 305 67t93 218 q0 153 -93 217.5t-323 64.5h-526v-567z" />
<glyph unicode="S" horiz-adv-x="1473" d="M119 465v22h149v-8q0 -169 128 -271t341 -102q211 0 335 82.5t124 221.5q0 106 -71.5 160.5t-297.5 95.5l-315 55q-176 30 -263 122t-87 247q0 195 152 311.5t411 116.5q268 0 421.5 -120.5t160.5 -334.5h-148q-14 156 -123.5 237.5t-306.5 81.5q-192 0 -304 -76.5 t-112 -207.5q0 -104 78 -159.5t291 -92.5l281 -49q202 -36 295.5 -127t93.5 -254q0 -214 -158.5 -334.5t-441.5 -120.5q-295 0 -464 135t-169 369z" />
<glyph unicode="T" horiz-adv-x="1298" d="M4 1343v136h1290v-136h-571v-1343h-148v1343h-571z" />
<glyph unicode="U" horiz-adv-x="1640" d="M176 539v940h150v-908q0 -242 119 -354.5t374 -112.5q256 0 376 113t120 354v908h149v-947q0 -276 -166.5 -423.5t-478.5 -147.5q-315 0 -479 147t-164 431z" />
<glyph unicode="V" horiz-adv-x="1532" d="M10 1479h162l594 -1352l594 1352h162l-664 -1479h-186z" />
<glyph unicode="W" horiz-adv-x="2286" d="M39 1479h158l432 -1348l424 1348h178l418 -1348l442 1348h154l-500 -1479h-195l-411 1321l-418 -1321h-193z" />
<glyph unicode="X" horiz-adv-x="1421" d="M14 0l607 760l-564 719h189l473 -619l475 619h184l-575 -717l604 -762h-193l-501 659l-506 -659h-193z" />
<glyph unicode="Y" horiz-adv-x="1473" d="M25 1479h188l522 -721l529 721h182l-637 -840v-639h-147v639z" />
<glyph unicode="Z" horiz-adv-x="1425" d="M66 0v145l1087 1196h-1034v138h1239v-138l-1108 -1196h1108v-145h-1292z" />
<glyph unicode="[" horiz-adv-x="627" d="M152 -389v1868h417v-123h-284v-1622h284v-123h-417z" />
<glyph unicode="\" horiz-adv-x="569" d="M-102 1518h112l578 -1708h-113z" />
<glyph unicode="]" horiz-adv-x="627" d="M55 -266h285v1622h-285v123h418v-1868h-418v123z" />
<glyph unicode="^" horiz-adv-x="2048" d="M422 901l532 557h140l530 -557h-143l-457 455l-459 -455h-143z" />
<glyph unicode="_" horiz-adv-x="1024" d="M0 -383h1024v-100h-1024v100z" />
<glyph unicode="`" horiz-adv-x="1024" d="M268 1538h187l176 -303h-121z" />
<glyph unicode="a" d="M119 299q0 72 28.5 130t85.5 101q45 33 122 55t263 48q41 5 112 14q265 32 265 154q0 89 -76.5 135.5t-224.5 46.5q-186 0 -282.5 -63t-104.5 -189h-141q12 191 139.5 286t370.5 95q155 0 250.5 -31t150.5 -100q33 -42 47.5 -96.5t14.5 -167.5v-60v-421q0 -72 13 -90.5 t46 -18.5q15 0 30.5 2.5t30.5 7.5l1 -123q-33 -10 -62.5 -15t-56.5 -5q-72 0 -105 38.5t-41 133.5q-89 -101 -199 -147t-266 -46q-197 0 -304 85t-107 241zM262 295q0 -88 76 -140.5t205 -52.5q201 0 326.5 94t125.5 244v17v131q-39 -22 -117.5 -40.5t-256.5 -45.5 q-235 -37 -297 -79.5t-62 -127.5z" />
<glyph unicode="b" horiz-adv-x="1384" d="M154 0v1479h143v-576q84 110 188 161.5t242 51.5q257 0 416.5 -157t159.5 -412t-159.5 -412.5t-416.5 -157.5q-141 0 -246 53t-184 163v-193h-143zM297 547q0 -199 116 -316.5t312 -117.5t313 118t117 316t-117 317t-313 119t-312 -118.5t-116 -317.5z" />
<glyph unicode="c" horiz-adv-x="1251" d="M84 543q0 260 160 420.5t420 160.5q205 0 349.5 -110t172.5 -287h-148q-39 127 -137 194.5t-242 67.5q-192 0 -311 -123t-119 -323q0 -203 118 -323t317 -120q148 0 253.5 80.5t133.5 214.5h145q-23 -192 -171.5 -313t-360.5 -121q-260 0 -420 161t-160 421z" />
<glyph unicode="d" horiz-adv-x="1384" d="M84 547q0 255 158.5 412t414.5 157q138 0 242.5 -51.5t190.5 -161.5v576h141v-1479h-141v193q-80 -110 -186 -163t-247 -53q-256 0 -414.5 157.5t-158.5 412.5zM229 547q0 -198 117.5 -316t312.5 -118q197 0 314 118t117 316q0 199 -117.5 317.5t-313.5 118.5 q-195 0 -312.5 -119t-117.5 -317z" />
<glyph unicode="e" horiz-adv-x="1319" d="M84 543q0 260 160 420.5t420 160.5q261 0 419 -158t158 -421v-33h-1003q12 -197 123 -304.5t303 -107.5q139 0 237.5 64.5t138.5 181.5h160q-43 -177 -187.5 -281t-348.5 -104q-261 0 -420.5 160t-159.5 422zM242 631h837q-12 162 -126 260t-289 98q-178 0 -293 -98 t-129 -260z" />
<glyph unicode="f" horiz-adv-x="612" d="M29 967v118h184v86q0 186 50 248t179 62q34 0 74 -6.5t86 -18.5v-125q-44 11 -71 15t-50 4q-73 0 -99 -28t-26 -130v-107h246v-118h-246v-967h-143v967h-184z" />
<glyph unicode="g" horiz-adv-x="1384" d="M84 543q0 255 158.5 412t414.5 157q135 0 241.5 -53t191.5 -162v188h141v-1003q0 -144 -29 -217.5t-98 -128.5q-78 -63 -187.5 -94t-252.5 -31q-221 0 -352.5 85t-145.5 236h147q16 -97 102.5 -145.5t243.5 -48.5q232 0 331.5 76t99.5 254v120q-88 -111 -191.5 -163 t-241.5 -52q-256 0 -414.5 157.5t-158.5 412.5zM229 543q0 -198 117.5 -316t312.5 -118q197 0 314 117.5t117 316.5q0 198 -117 316t-314 118q-195 0 -312.5 -118.5t-117.5 -315.5z" />
<glyph unicode="h" horiz-adv-x="1305" d="M150 0v1479h137v-594q79 110 194 166.5t260 56.5q215 0 316.5 -98.5t101.5 -307.5v-702h-141v610q0 207 -68 288t-233 81q-186 0 -306 -101t-120 -260v-618h-141z" />
<glyph unicode="i" horiz-adv-x="461" d="M160 0v1085h141v-1085h-141zM160 1311v168h141v-168h-141z" />
<glyph unicode="j" horiz-adv-x="461" d="M-66 -250q27 -4 54 -6t57 -2q76 0 103.5 29.5t27.5 136.5v1177h143v-1206q0 -150 -54.5 -209t-186.5 -59q-41 0 -76 3.5t-67 10.5zM176 1311v168h143v-168h-143z" />
<glyph unicode="k" horiz-adv-x="1208" d="M154 0v1479h143v-899l625 505h211l-494 -399l575 -686h-190l-502 596l-225 -184v-412h-143z" />
<glyph unicode="l" horiz-adv-x="461" d="M160 0v1479h141v-1479h-141z" />
<glyph unicode="m" horiz-adv-x="2159" d="M150 0v1085h137v-200q79 110 194 166.5t260 56.5q157 0 256 -55t146 -168q79 110 194.5 166.5t259.5 56.5q215 0 316.5 -98.5t101.5 -307.5v-702h-143v610q0 208 -67.5 288.5t-231.5 80.5q-186 0 -306 -101t-120 -260v-618h-129v610q0 207 -68 288t-233 81 q-186 0 -306 -101t-120 -260v-618h-141z" />
<glyph unicode="n" horiz-adv-x="1305" d="M150 0v1085h137v-200q79 110 194 166.5t260 56.5q215 0 316.5 -98.5t101.5 -307.5v-702h-141v610q0 207 -68 288t-233 81q-186 0 -306 -101t-120 -260v-618h-141z" />
<glyph unicode="o" d="M84 543q0 260 160 420.5t420 160.5q259 0 420 -161t161 -420q0 -260 -161 -421t-420 -161q-260 0 -420 161t-160 421zM229 543q0 -203 118 -323t317 -120q198 0 316 120.5t118 322.5t-118 322t-316 120q-199 0 -317 -120t-118 -322z" />
<glyph unicode="p" horiz-adv-x="1384" d="M154 -389v1474h143v-190q82 111 186 163t244 52q259 0 417.5 -156.5t158.5 -410.5t-160 -412t-416 -158q-138 0 -242 52t-188 161v-575h-143zM297 543q0 -199 116 -316.5t312 -117.5t313 118t117 316q0 197 -117 315.5t-313 118.5t-312 -117.5t-116 -316.5z" />
<glyph unicode="q" horiz-adv-x="1384" d="M84 543q0 254 158 410.5t415 156.5q142 0 246.5 -52t186.5 -163v190h141v-1474h-141v575q-86 -109 -190.5 -161t-242.5 -52q-256 0 -414.5 158t-158.5 412zM229 543q0 -198 117.5 -316t312.5 -118q197 0 314 117.5t117 316.5q0 198 -117 316t-314 118 q-195 0 -312.5 -118.5t-117.5 -315.5z" />
<glyph unicode="r" horiz-adv-x="762" d="M154 0v1085h143v-180q47 103 133.5 161t192.5 58q35 0 70.5 -7.5t72.5 -22.5v-138q-36 11 -67 16t-60 5q-127 0 -212 -68.5t-130 -206.5v-702h-143z" />
<glyph unicode="s" horiz-adv-x="1161" d="M59 342h144q15 -121 109.5 -182.5t267.5 -61.5q183 0 278.5 51.5t95.5 149.5q0 69 -47.5 107.5t-154.5 54.5l-316 47q-185 27 -266.5 97t-81.5 200q0 147 129 233t354 86q227 0 356.5 -93.5t132.5 -258.5h-142q-16 111 -108 166t-259 55q-149 0 -232 -48t-83 -132 q0 -70 53 -107.5t196 -58.5l279 -43q180 -27 259 -95.5t79 -195.5q0 -172 -137 -262t-400 -90q-230 0 -361.5 99t-144.5 282z" />
<glyph unicode="t" horiz-adv-x="612" d="M29 967v118h184v318h143v-318h246v-118h-246v-678q0 -121 27 -148.5t102 -27.5q24 0 51.5 3.5t63.5 12.5v-123q-50 -12 -93.5 -18t-82.5 -6q-114 0 -162.5 64.5t-48.5 223.5v697h-184z" />
<glyph unicode="u" horiz-adv-x="1305" d="M150 383v702h141v-610q0 -206 68 -287.5t233 -81.5q186 0 306 101.5t120 259.5v618h141v-1085h-137v201q-80 -110 -195 -167t-260 -57q-214 0 -315.5 99t-101.5 307z" />
<glyph unicode="v" horiz-adv-x="1104" d="M-25 1085h164l406 -940l409 940h158l-496 -1085h-147z" />
<glyph unicode="w" horiz-adv-x="1759" d="M23 1085h155l318 -952l290 952h183l307 -952l303 952h152l-373 -1085h-168l-311 967l-304 -967h-172z" />
<glyph unicode="x" horiz-adv-x="1159" d="M4 0l492 578l-433 507h183l342 -407l334 407h184l-430 -512l479 -573h-168l-403 471l-406 -471h-174z" />
<glyph unicode="y" horiz-adv-x="1104" d="M-25 1085h164l406 -940l409 940h158l-559 -1216q-75 -164 -149 -212t-205 -48q-25 0 -54.5 5t-68.5 15v135q45 -9 79.5 -13.5t59.5 -4.5q82 0 135.5 51t120.5 207z" />
<glyph unicode="z" horiz-adv-x="1151" d="M66 0v141l819 811h-781v133h953v-137l-817 -811h845v-137h-1019z" />
<glyph unicode="{" horiz-adv-x="1024" d="M174 477v109q9 0 23.5 -1t21.5 -1q138 0 195 63t57 217v242q0 223 70 297t266 74h47v-107h-37q-131 0 -177 -49.5t-46 -204.5v-242q0 -168 -43.5 -240t-153.5 -104q110 -31 153.5 -103t43.5 -241v-241q0 -155 45 -204.5t170 -49.5q7 0 22 1t23 1v-107h-47 q-197 0 -266.5 72.5t-69.5 296.5v244q0 154 -57 217t-195 63q-7 0 -21.5 -1t-23.5 -1z" />
<glyph unicode="|" horiz-adv-x="1024" d="M459 -483v2048h108v-2048h-108z" />
<glyph unicode="}" horiz-adv-x="1024" d="M172 -307h39q130 0 175.5 49t45.5 203v241q0 171 43 242t154 102q-111 32 -154 103t-43 241v242q0 157 -45 206.5t-170 49.5q-7 0 -22 -1t-23 -1v107h47q196 0 266 -74t70 -297v-242q0 -154 57 -217t195 -63q7 0 22 1t23 1v-109q-8 0 -23 1t-22 1q-138 0 -195 -63 t-57 -217v-244q0 -223 -69.5 -296t-266.5 -73h-47v107z" />
<glyph unicode="~" horiz-adv-x="1706" d="M178 471v113q106 73 202 109t185 36q104 0 272 -61q11 -4 18 -7q9 -3 31 -11q167 -60 257 -60q85 0 177 38t210 122v-113q-102 -72 -198 -107.5t-189 -35.5q-99 0 -260 57q-20 7 -29 10q-5 2 -16 6q-176 64 -273 64q-83 0 -175 -38t-212 -122z" />
<glyph unicode="&#xa0;" />
<glyph unicode="&#xa1;" horiz-adv-x="639" d="M238 0v541l36 592h93l36 -592v-541h-165zM238 1298v181h165v-181h-165z" />
<glyph unicode="&#xa2;" d="M84 580q0 242 141 399t379 178v186h101v-184q195 -13 324.5 -120t156.5 -275h-148q-28 112 -116 180.5t-217 79.5v-885q137 11 227.5 87.5t118.5 205.5h145q-25 -184 -154 -298t-337 -134v-227h-101v227q-237 20 -378.5 178t-141.5 402zM229 580q0 -186 101.5 -305 t273.5 -136v885q-173 -20 -274 -139.5t-101 -304.5z" />
<glyph unicode="&#xa3;" d="M61 647v109h158q-35 85 -52 156.5t-17 127.5q0 194 152 317.5t394 123.5q257 0 404 -127.5t147 -347.5v-17h-136q-6 173 -112 265t-301 92q-181 0 -290 -86t-109 -228q0 -54 16 -115t58 -161h469v-109h-426q18 -55 27.5 -102.5t9.5 -87.5q0 -94 -42.5 -170t-148.5 -166 q68 26 122 38.5t101 12.5q60 0 199.5 -36t218.5 -36q76 0 155 27.5t159 81.5l57 -125q-80 -61 -170 -92t-191 -31t-265.5 42t-227.5 42q-66 0 -130 -18.5t-130 -57.5l-78 133q116 72 170.5 153.5t54.5 184.5q0 49 -12 100t-37 107h-197z" />
<glyph unicode="&#xa4;" horiz-adv-x="1241" d="M90 420l205 207q-45 61 -67.5 125.5t-22.5 132.5t22.5 133.5t67.5 126.5l-205 205l66 65l204 -205q60 46 124.5 68t136.5 22t138.5 -22.5t123.5 -67.5l204 205l66 -65l-205 -205q44 -59 66 -125t22 -135t-22 -134t-66 -124l205 -207l-66 -66l-204 205q-59 -45 -125 -67.5 t-137 -22.5t-135 22t-126 68l-204 -205zM297 887q0 -134 96 -230t230 -96q133 0 227 96t94 230q0 133 -94 227t-227 94q-134 0 -230 -94.5t-96 -226.5z" />
<glyph unicode="&#xa5;" d="M-29 1442h183l510 -709l514 709h178l-363 -475h289v-84h-352l-135 -172h487v-84h-549v-627h-143v627h-545v84h481l-131 172h-350v84h287z" />
<glyph unicode="&#xa6;" horiz-adv-x="1024" d="M459 -350v758h108v-758h-108zM459 674v758h108v-758h-108z" />
<glyph unicode="&#xa7;" d="M84 670q0 99 56 174.5t163 120.5q-57 46 -85 101t-28 122q0 149 123.5 239.5t331.5 90.5q226 0 346.5 -95t120.5 -272v-8h-139v4q0 120 -85 183t-249 63q-148 0 -223.5 -51t-75.5 -150q0 -56 23.5 -89t99.5 -67q8 -3 81.5 -29t213.5 -75q21 -8 62 -22q250 -86 290 -115 q71 -52 103 -112.5t32 -145.5q0 -100 -51.5 -169.5t-161.5 -117.5q55 -38 82 -96t27 -138q0 -167 -129.5 -261.5t-360.5 -94.5t-358 100t-129 285h141q2 -130 88 -192t266 -62q166 0 252 55t86 160q0 41 -9.5 73t-29.5 54q-28 34 -259 114q-66 23 -104 36q-5 2 -14 5 q-330 116 -382 158q-58 46 -86.5 101.5t-28.5 122.5zM227 690q0 -72 40 -115t149 -81l516 -183q91 38 132.5 89t41.5 124q0 77 -44 124t-157 85l-522 180q-81 -51 -118.5 -104.5t-37.5 -118.5z" />
<glyph unicode="&#xa8;" horiz-adv-x="1024" d="M178 1303v167h141v-167h-141zM705 1303v167h141v-167h-141z" />
<glyph unicode="&#xa9;" horiz-adv-x="1706" d="M121 723q0 145 56.5 279.5t162.5 242.5q101 103 232 157t280 54t283.5 -55.5t238.5 -159.5q102 -102 156.5 -235.5t54.5 -282.5q0 -150 -53.5 -281t-157.5 -233q-107 -106 -242 -162.5t-280 -56.5t-278 55.5t-238 161.5q-105 104 -160 237t-55 279zM201 723 q0 -129 49.5 -247t142.5 -212q94 -93 212 -142.5t247 -49.5q130 0 250.5 50t216.5 144q91 89 138.5 206t47.5 251q0 132 -48.5 251t-139.5 210q-94 94 -213 143t-252 49q-132 0 -249 -48t-208 -140q-94 -96 -144 -215.5t-50 -249.5zM469 727q0 203 107.5 326t283.5 123 q135 0 226.5 -72t103.5 -189h-117q-18 80 -75 124t-142 44q-122 0 -190 -95t-68 -267q0 -166 69 -260t189 -94q89 0 151 50.5t78 137.5h115q-11 -125 -108.5 -205t-241.5 -80q-177 0 -279 122t-102 335z" />
<glyph unicode="&#xaa;" horiz-adv-x="995" d="M90 928q0 51 21.5 92t64.5 70q34 24 92.5 39.5t196.5 31.5q30 4 83 11q200 23 200 108q0 62 -58.5 94.5t-169.5 32.5q-138 0 -211 -44.5t-78 -131.5h-106q10 134 105 200t278 66q116 0 187.5 -22t113.5 -70q24 -28 34.5 -65.5t10.5 -118.5v-41v-295q0 -51 10 -64.5 t35 -13.5q11 0 22 2t23 6v-86q-25 -7 -47 -10.5t-41 -3.5q-54 0 -78.5 27t-30.5 93q-66 -71 -149 -103t-201 -32q-147 0 -227 59.5t-80 168.5zM197 926q0 -62 56.5 -98.5t154.5 -36.5q151 0 245.5 66t94.5 171v10v92q-33 -16 -97 -29.5t-186 -29.5q-178 -26 -223 -56 t-45 -89z" />
<glyph unicode="&#xab;" horiz-adv-x="1067" d="M129 442v201l358 272v-161l-276 -211l276 -211v-162zM559 442v201l361 272v-161l-277 -211l277 -211v-162z" />
<glyph unicode="&#xac;" horiz-adv-x="1706" d="M254 758v100h1198v-502h-96v402h-1102z" />
<glyph unicode="&#xad;" horiz-adv-x="948" d="M113 477v131h723v-131h-723z" />
<glyph unicode="&#xae;" horiz-adv-x="1706" d="M121 723q0 144 56.5 279.5t162.5 242.5q101 103 232 157t280 54q152 0 285.5 -55t236.5 -160q102 -102 156.5 -235.5t54.5 -282.5q0 -150 -53.5 -281t-157.5 -233q-107 -106 -242 -162.5t-280 -56.5q-147 0 -279.5 55.5t-236.5 161.5q-105 104 -160 237t-55 279zM201 723 q0 -129 49.5 -247t142.5 -212q94 -93 212 -142.5t247 -49.5q130 0 250.5 50t216.5 144q91 89 138.5 204.5t47.5 250.5q0 134 -48 253t-138 210q-94 93 -213.5 142.5t-253.5 49.5q-130 0 -246.5 -48t-208.5 -140q-95 -97 -145.5 -216.5t-50.5 -248.5zM565 313v844h309 q178 0 263.5 -57t85.5 -176q0 -89 -54 -149t-145 -73l188 -389h-145l-178 371h-197v-371h-127zM692 768h158q134 0 188 33.5t54 113.5q0 83 -57 119.5t-185 36.5h-158v-303z" />
<glyph unicode="&#xaf;" horiz-adv-x="1024" d="M127 1325v123h768v-123h-768z" />
<glyph unicode="&#xb0;" horiz-adv-x="674" d="M59 1174q0 116 81.5 197t197.5 81q115 0 195.5 -81.5t80.5 -196.5t-81.5 -197t-196.5 -82q-117 0 -197 81t-80 198zM129 1174q0 -87 61 -147t148 -60t147 60t60 147q0 86 -60.5 147t-146.5 61t-147.5 -61t-61.5 -147z" />
<glyph unicode="&#xb1;" horiz-adv-x="1706" d="M254 51v99h1198v-99h-1198zM254 723v98h551v348h98v-348h549v-98h-549v-348h-98v348h-551z" />
<glyph unicode="&#xb2;" horiz-adv-x="877" d="M66 575v5q0 65 24 118.5t76 102.5q24 25 81.5 59.5t188.5 100.5q24 12 67 34q98 49 122 70q35 30 50 60.5t15 74.5q0 85 -65 133.5t-179 48.5q-132 0 -203 -59.5t-71 -171.5h-92v6q0 142 97 224.5t265 82.5q159 0 251.5 -72t92.5 -194q0 -86 -49.5 -145.5t-236.5 -155.5 q-203 -102 -262 -148t-64 -87h604v-87h-712z" />
<glyph unicode="&#xb3;" horiz-adv-x="877" d="M66 850h99q4 -105 73.5 -159t201.5 -54q130 0 198.5 47.5t68.5 138.5q0 89 -69 127.5t-230 38.5h-35v80h22q143 0 208 37t65 119q0 80 -58.5 119.5t-175.5 39.5q-109 0 -172.5 -57t-64.5 -155h-99q10 143 97 216.5t245 73.5q156 0 241 -60t85 -169q0 -78 -42.5 -129 t-121.5 -70q96 -10 149.5 -65.5t53.5 -145.5q0 -129 -95 -199.5t-268 -70.5q-179 0 -276 76.5t-100 220.5z" />
<glyph unicode="&#xb4;" horiz-adv-x="1024" d="M393 1235l176 303h187l-242 -303h-121z" />
<glyph unicode="&#xb5;" horiz-adv-x="1110" d="M-111 -426l316 1491h139l-125 -592q-8 -39 -12 -73t-4 -66q0 -117 58 -180.5t167 -63.5q125 0 215 107.5t133 310.5l121 557h139l-164 -770q-12 -55 -17 -85t-5 -48q0 -33 17 -49.5t51 -16.5q7 0 16.5 0.5t19.5 1.5l-20 -110q-19 -5 -41 -8t-45 -3q-70 0 -103.5 36 t-33.5 110v14q-42 -77 -120 -119.5t-179 -42.5q-92 0 -161 40t-108 116l-114 -557h-140z" />
<glyph unicode="&#xb6;" horiz-adv-x="1024" d="M84 1130q0 157 107.5 253t285.5 96h463v-70h-127v-1409h-82v1409h-186v-1409h-84v782q-174 8 -275.5 102.5t-101.5 245.5z" />
<glyph unicode="&#xb7;" horiz-adv-x="664" d="M225 721q0 44 31 74t76 30t75.5 -30t30.5 -74q0 -45 -31 -76t-75 -31q-45 0 -76 31t-31 76z" />
<glyph unicode="&#xb8;" horiz-adv-x="1024" d="M289 -401l24 65q64 -18 116.5 -27.5t94.5 -9.5q72 0 108 24.5t36 72.5q0 39 -24.5 59t-72.5 20q-17 0 -39.5 -3.5t-72.5 -14.5l-41 31l104 184h80l-72 -127q21 6 43.5 9t42.5 3q87 0 135 -43t48 -121q0 -82 -62.5 -128t-175.5 -46q-55 0 -124 13t-148 39z" />
<glyph unicode="&#xb9;" horiz-adv-x="877" d="M139 1225v73h97q113 0 160 37.5t49 126.5h77v-887h-94v650h-289z" />
<glyph unicode="&#xba;" horiz-adv-x="995" d="M63 1100q0 181 120 293t315 112t315.5 -112t120.5 -293q0 -183 -120.5 -295.5t-315.5 -112.5t-315 112.5t-120 295.5zM172 1100q0 -143 88.5 -227.5t237.5 -84.5t237 84.5t88 227.5q0 141 -88 225t-237 84t-237.5 -84t-88.5 -225z" />
<glyph unicode="&#xbb;" horiz-adv-x="1067" d="M147 170v162l277 211l-277 211v161l359 -272v-201zM580 170v162l276 211l-276 211v161l358 -272v-201z" />
<glyph unicode="&#xbc;" horiz-adv-x="2099" d="M133 1239v68h92q107 0 152 34.5t47 118.5h74v-827h-90v606h-275zM410 -39l1146 1518h134l-1149 -1518h-131zM1313 209v82l483 534h86v-540h160v-76h-160v-209h-90v209h-479zM1403 285h389v428z" />
<glyph unicode="&#xbd;" horiz-adv-x="2099" d="M133 1239v68h92q107 0 152 34.5t47 118.5h74v-827h-90v606h-275zM410 -39l1146 1518h134l-1149 -1518h-131zM1325 0v4q0 61 22.5 111t71.5 96q23 21 73.5 50.5t184.5 96.5q27 14 73 37q86 43 108 62q34 28 47.5 55.5t13.5 69.5q0 79 -61.5 124.5t-169.5 45.5 q-126 0 -193.5 -55t-67.5 -158h-90v4q0 133 93.5 209.5t255.5 76.5q150 0 238.5 -67.5t88.5 -181.5q0 -81 -49 -137t-225 -142q-197 -98 -252 -140.5t-59 -80.5h577v-80h-680z" />
<glyph unicode="&#xbe;" horiz-adv-x="2097" d="M64 889h93q4 -98 70.5 -148.5t192.5 -50.5q124 0 189 44.5t65 129.5q0 84 -65.5 120t-219.5 36h-35v74h23q137 0 198.5 34.5t61.5 110.5q0 74 -56 112t-167 38q-105 0 -164.5 -52.5t-63.5 -146.5h-94q11 133 94.5 201.5t233.5 68.5q149 0 230 -55.5t81 -157.5 q0 -73 -40.5 -121t-116.5 -65q91 -9 142.5 -61t51.5 -136q0 -120 -91 -187t-255 -67q-171 0 -264 72.5t-94 206.5zM410 -39l1146 1518h134l-1149 -1518h-131zM1313 209v82l483 534h86v-540h160v-76h-160v-209h-90v209h-479zM1403 285h389v428z" />
<glyph unicode="&#xbf;" horiz-adv-x="1200" d="M96 403q0 68 17.5 126t52.5 106q55 79 212 193q45 32 66 49q68 51 93.5 98t25.5 117q0 3 2 10t2 10q0 2 -0.5 4.5t-3.5 7.5h166v-57q0 -85 -32.5 -144.5t-159.5 -158.5q-20 -16 -58 -45q-223 -169 -223 -318q0 -139 97 -221t263 -82q169 0 269 99.5t100 267.5v4h156v-27 q0 -222 -140 -351.5t-380 -129.5q-242 0 -383.5 119.5t-141.5 322.5zM563 1298v181h166v-181h-166z" />
<glyph unicode="&#xc0;" horiz-adv-x="1561" d="M16 0l682 1479h170l674 -1479h-149l-207 457h-809l-209 -457h-152zM442 600h678l-338 756zM553 1931h187l176 -303h-121z" />
<glyph unicode="&#xc1;" horiz-adv-x="1561" d="M16 0l682 1479h170l674 -1479h-149l-207 457h-809l-209 -457h-152zM442 600h678l-338 756zM678 1628l176 303h187l-242 -303h-121z" />
<glyph unicode="&#xc2;" horiz-adv-x="1561" d="M16 0l682 1479h170l674 -1479h-149l-207 457h-809l-209 -457h-152zM428 1628l285 303h168l285 -303h-158l-211 217l-211 -217h-158zM442 600h678l-338 756z" />
<glyph unicode="&#xc3;" horiz-adv-x="1561" d="M16 0l682 1479h170l674 -1479h-149l-207 457h-809l-209 -457h-152zM410 1659q12 112 70.5 175.5t148.5 63.5q29 0 59 -8t70 -29l92 -47q9 -4 25 -12q59 -31 94 -31q48 0 77 32.5t40 96.5h98q-12 -112 -70.5 -176.5t-148.5 -64.5q-27 0 -56 8t-73 31l-94 47q-9 4 -23 11 q-58 30 -94 30q-48 0 -77 -31.5t-40 -95.5h-98zM442 600h678l-338 756z" />
<glyph unicode="&#xc4;" horiz-adv-x="1561" d="M16 0l682 1479h170l674 -1479h-149l-207 457h-809l-209 -457h-152zM442 600h678l-338 756zM463 1696v167h141v-167h-141zM990 1696v167h141v-167h-141z" />
<glyph unicode="&#xc5;" horiz-adv-x="1561" d="M16 0l682 1479h170l674 -1479h-149l-207 457h-809l-209 -457h-152zM442 600h678l-338 756zM553 1745q0 92 62 145.5t169 53.5t168.5 -53.5t61.5 -145.5q0 -93 -61.5 -146t-168.5 -53t-169 53.5t-62 145.5zM655 1745q0 -53 35 -85t92 -32q58 0 93.5 32t35.5 85t-35 85 t-94 32t-93 -31.5t-34 -85.5z" />
<glyph unicode="&#xc6;" horiz-adv-x="2353" d="M8 0l807 1479h1440v-138h-989v-518h913v-139h-913v-545h989v-139h-1135v457h-690l-258 -457h-164zM508 600h600v746h-195z" />
<glyph unicode="&#xc7;" horiz-adv-x="1659" d="M102 739q0 363 207 571t570 208q286 0 468 -139t218 -384h-150q-43 182 -183 280.5t-355 98.5q-291 0 -458 -169.5t-167 -465.5q0 -289 162 -461t434 -172q224 0 381.5 121.5t202.5 327.5h157q-51 -274 -249 -434t-488 -160q-341 0 -545.5 212t-204.5 566zM606 -401 l24 65q64 -18 116.5 -27.5t94.5 -9.5q72 0 108 24.5t36 72.5q0 39 -24.5 59t-72.5 20q-17 0 -39.5 -3.5t-72.5 -14.5l-41 31l104 184h80l-72 -127q21 6 43.5 9t42.5 3q87 0 135 -43t48 -121q0 -82 -62.5 -128t-175.5 -46q-55 0 -124 13t-148 39z" />
<glyph unicode="&#xc8;" horiz-adv-x="1407" d="M174 0v1479h1137v-138h-989v-518h913v-139h-913v-545h989v-139h-1137zM497 1931h187l176 -303h-121z" />
<glyph unicode="&#xc9;" horiz-adv-x="1407" d="M174 0v1479h1137v-138h-989v-518h913v-139h-913v-545h989v-139h-1137zM622 1628l176 303h187l-242 -303h-121z" />
<glyph unicode="&#xca;" horiz-adv-x="1407" d="M174 0v1479h1137v-138h-989v-518h913v-139h-913v-545h989v-139h-1137zM372 1628l285 303h168l285 -303h-158l-211 217l-211 -217h-158z" />
<glyph unicode="&#xcb;" horiz-adv-x="1407" d="M174 0v1479h1137v-138h-989v-518h913v-139h-913v-545h989v-139h-1137zM407 1696v167h141v-167h-141zM934 1696v167h141v-167h-141z" />
<glyph unicode="&#xcc;" horiz-adv-x="516" d="M14 1931h187l176 -303h-121zM184 0v1479h148v-1479h-148z" />
<glyph unicode="&#xcd;" horiz-adv-x="516" d="M139 1628l176 303h187l-242 -303h-121zM184 0v1479h148v-1479h-148z" />
<glyph unicode="&#xce;" horiz-adv-x="516" d="M-111 1628l285 303h168l285 -303h-158l-211 217l-211 -217h-158zM184 0v1479h148v-1479h-148z" />
<glyph unicode="&#xcf;" horiz-adv-x="516" d="M-76 1696v167h141v-167h-141zM184 0v1479h148v-1479h-148zM451 1696v167h141v-167h-141z" />
<glyph unicode="&#xd0;" horiz-adv-x="1669" d="M0 735v109h184v635h537q251 0 382 -30.5t226 -100.5q121 -96 179.5 -246.5t58.5 -362.5q0 -213 -59 -362.5t-181 -243.5q-93 -72 -223.5 -102.5t-382.5 -30.5h-537v735h-184zM332 141h389q195 0 303 22t184 73q107 70 157 194.5t50 319.5q0 185 -51 309t-156 194 q-76 50 -186.5 71.5t-333.5 21.5h-356v-502h524v-109h-524v-594z" />
<glyph unicode="&#xd1;" horiz-adv-x="1716" d="M174 0v1479h188l1035 -1327v1327h143v-1479h-197l-1026 1327v-1327h-143zM471 1659q12 112 70.5 175.5t148.5 63.5q29 0 59 -8t70 -29l92 -47q9 -4 25 -12q59 -31 94 -31q48 0 77 32.5t40 96.5h98q-12 -112 -70.5 -176.5t-148.5 -64.5q-27 0 -56 8t-73 31l-94 47 q-9 4 -23 11q-58 30 -94 30q-48 0 -77 -31.5t-40 -95.5h-98z" />
<glyph unicode="&#xd2;" horiz-adv-x="1759" d="M102 739q0 363 207 571t570 208q362 0 570 -208t208 -571q0 -362 -208 -570t-570 -208q-363 0 -570 208t-207 570zM252 739q0 -297 166.5 -466t460.5 -169q293 0 459.5 169t166.5 466q0 298 -166.5 466.5t-459.5 168.5q-294 0 -460.5 -168.5t-166.5 -466.5zM637 1931h187 l176 -303h-121z" />
<glyph unicode="&#xd3;" horiz-adv-x="1759" d="M102 739q0 363 207 571t570 208q362 0 570 -208t208 -571q0 -362 -208 -570t-570 -208q-363 0 -570 208t-207 570zM252 739q0 -297 166.5 -466t460.5 -169q293 0 459.5 169t166.5 466q0 298 -166.5 466.5t-459.5 168.5q-294 0 -460.5 -168.5t-166.5 -466.5zM762 1628 l176 303h187l-242 -303h-121z" />
<glyph unicode="&#xd4;" horiz-adv-x="1759" d="M102 739q0 363 207 571t570 208q362 0 570 -208t208 -571q0 -362 -208 -570t-570 -208q-363 0 -570 208t-207 570zM252 739q0 -297 166.5 -466t460.5 -169q293 0 459.5 169t166.5 466q0 298 -166.5 466.5t-459.5 168.5q-294 0 -460.5 -168.5t-166.5 -466.5zM512 1628 l285 303h168l285 -303h-158l-211 217l-211 -217h-158z" />
<glyph unicode="&#xd5;" horiz-adv-x="1759" d="M102 739q0 363 207 571t570 208q362 0 570 -208t208 -571q0 -362 -208 -570t-570 -208q-363 0 -570 208t-207 570zM252 739q0 -297 166.5 -466t460.5 -169q293 0 459.5 169t166.5 466q0 298 -166.5 466.5t-459.5 168.5q-294 0 -460.5 -168.5t-166.5 -466.5zM494 1659 q12 112 70.5 175.5t148.5 63.5q29 0 59 -8t70 -29l92 -47q9 -4 25 -12q59 -31 94 -31q48 0 77 32.5t40 96.5h98q-12 -112 -70.5 -176.5t-148.5 -64.5q-27 0 -56 8t-73 31l-94 47q-9 4 -23 11q-58 30 -94 30q-48 0 -77 -31.5t-40 -95.5h-98z" />
<glyph unicode="&#xd6;" horiz-adv-x="1759" d="M102 739q0 363 207 571t570 208q362 0 570 -208t208 -571q0 -362 -208 -570t-570 -208q-363 0 -570 208t-207 570zM252 739q0 -297 166.5 -466t460.5 -169q293 0 459.5 169t166.5 466q0 298 -166.5 466.5t-459.5 168.5q-294 0 -460.5 -168.5t-166.5 -466.5zM547 1696v167 h141v-167h-141zM1074 1696v167h141v-167h-141z" />
<glyph unicode="&#xd7;" horiz-adv-x="1706" d="M305 129l481 481l-481 482l70 69l481 -481l481 481l70 -69l-481 -482l481 -481l-70 -70l-481 482l-481 -482z" />
<glyph unicode="&#xd8;" horiz-adv-x="1759" d="M96 0l195 199q-94 95 -141.5 231t-47.5 309q0 363 207 571t570 208q174 0 310.5 -47.5t233.5 -141.5l179 180l61 -57l-178 -182q84 -105 128 -239.5t44 -291.5q0 -365 -208.5 -571.5t-578.5 -206.5q-156 0 -281 42t-243 134l-190 -192zM252 739q0 -142 34.5 -246 t110.5 -192l920 922q-79 75 -189 113t-249 38q-294 0 -460.5 -168.5t-166.5 -466.5zM451 242q85 -69 192.5 -103.5t235.5 -34.5q289 0 457.5 167.5t168.5 455.5q0 136 -33 244t-100 188z" />
<glyph unicode="&#xd9;" horiz-adv-x="1640" d="M176 539v940h150v-908q0 -242 119 -354.5t374 -112.5q256 0 376 113t120 354v908h149v-947q0 -276 -166.5 -423.5t-478.5 -147.5q-315 0 -479 147t-164 431zM577 1931h187l176 -303h-121z" />
<glyph unicode="&#xda;" horiz-adv-x="1640" d="M176 539v940h150v-908q0 -242 119 -354.5t374 -112.5q256 0 376 113t120 354v908h149v-947q0 -276 -166.5 -423.5t-478.5 -147.5q-315 0 -479 147t-164 431zM702 1628l176 303h187l-242 -303h-121z" />
<glyph unicode="&#xdb;" horiz-adv-x="1640" d="M176 539v940h150v-908q0 -242 119 -354.5t374 -112.5q256 0 376 113t120 354v908h149v-947q0 -276 -166.5 -423.5t-478.5 -147.5q-315 0 -479 147t-164 431zM452 1628l285 303h168l285 -303h-158l-211 217l-211 -217h-158z" />
<glyph unicode="&#xdc;" horiz-adv-x="1640" d="M176 539v940h150v-908q0 -242 119 -354.5t374 -112.5q256 0 376 113t120 354v908h149v-947q0 -276 -166.5 -423.5t-478.5 -147.5q-315 0 -479 147t-164 431zM487 1696v167h141v-167h-141zM1014 1696v167h141v-167h-141z" />
<glyph unicode="&#xdd;" horiz-adv-x="1473" d="M25 1479h188l522 -721l529 721h182l-637 -840v-639h-147v639zM618 1628l176 303h187l-242 -303h-121z" />
<glyph unicode="&#xde;" horiz-adv-x="1407" d="M174 0v1479h148v-289h454q277 0 411 -107.5t134 -328.5q0 -222 -134 -329.5t-411 -107.5h-454v-317h-148zM322 461h428q235 0 325 66t90 229q0 162 -90 228.5t-325 66.5h-428v-590z" />
<glyph unicode="&#xdf;" horiz-adv-x="1264" d="M168 0v1016q0 253 110 358t371 105q223 0 351 -101t128 -274q0 -104 -59.5 -182t-169.5 -115q147 -31 220 -122.5t73 -244.5q0 -214 -137 -335t-379 -121q-41 0 -82 4t-82 12v131q60 -8 103 -12t71 -4q170 0 266.5 87.5t96.5 241.5q0 153 -108 223t-343 70 q-34 0 -52 -0.5t-34 -0.5v126q12 0 36.5 -1t37.5 -1q210 0 303.5 58t93.5 188q0 118 -85.5 181t-246.5 63q-186 0 -263 -75t-77 -259v-1016h-143z" />
<glyph unicode="&#xe0;" d="M119 299q0 72 28.5 130t85.5 101q45 33 122 55t263 48q41 5 112 14q265 32 265 154q0 89 -76.5 135.5t-224.5 46.5q-186 0 -282.5 -63t-104.5 -189h-141q12 191 139.5 286t370.5 95q155 0 250.5 -31t150.5 -100q33 -42 47.5 -96.5t14.5 -167.5v-60v-421q0 -72 13 -90.5 t46 -18.5q15 0 30.5 2.5t30.5 7.5l1 -123q-33 -10 -62.5 -15t-56.5 -5q-72 0 -105 38.5t-41 133.5q-89 -101 -199 -147t-266 -46q-197 0 -304 85t-107 241zM262 295q0 -88 76 -140.5t205 -52.5q201 0 326.5 94t125.5 244v17v131q-39 -22 -117.5 -40.5t-256.5 -45.5 q-235 -37 -297 -79.5t-62 -127.5zM450 1538h187l176 -303h-121z" />
<glyph unicode="&#xe1;" d="M119 299q0 72 28.5 130t85.5 101q45 33 122 55t263 48q41 5 112 14q265 32 265 154q0 89 -76.5 135.5t-224.5 46.5q-186 0 -282.5 -63t-104.5 -189h-141q12 191 139.5 286t370.5 95q155 0 250.5 -31t150.5 -100q33 -42 47.5 -96.5t14.5 -167.5v-60v-421q0 -72 13 -90.5 t46 -18.5q15 0 30.5 2.5t30.5 7.5l1 -123q-33 -10 -62.5 -15t-56.5 -5q-72 0 -105 38.5t-41 133.5q-89 -101 -199 -147t-266 -46q-197 0 -304 85t-107 241zM262 295q0 -88 76 -140.5t205 -52.5q201 0 326.5 94t125.5 244v17v131q-39 -22 -117.5 -40.5t-256.5 -45.5 q-235 -37 -297 -79.5t-62 -127.5zM575 1235l176 303h187l-242 -303h-121z" />
<glyph unicode="&#xe2;" d="M119 299q0 72 28.5 130t85.5 101q45 33 122 55t263 48q41 5 112 14q265 32 265 154q0 89 -76.5 135.5t-224.5 46.5q-186 0 -282.5 -63t-104.5 -189h-141q12 191 139.5 286t370.5 95q155 0 250.5 -31t150.5 -100q33 -42 47.5 -96.5t14.5 -167.5v-60v-421q0 -72 13 -90.5 t46 -18.5q15 0 30.5 2.5t30.5 7.5l1 -123q-33 -10 -62.5 -15t-56.5 -5q-72 0 -105 38.5t-41 133.5q-89 -101 -199 -147t-266 -46q-197 0 -304 85t-107 241zM262 295q0 -88 76 -140.5t205 -52.5q201 0 326.5 94t125.5 244v17v131q-39 -22 -117.5 -40.5t-256.5 -45.5 q-235 -37 -297 -79.5t-62 -127.5zM325 1235l285 303h168l285 -303h-158l-211 217l-211 -217h-158z" />
<glyph unicode="&#xe3;" d="M119 299q0 72 28.5 130t85.5 101q45 33 122 55t263 48q41 5 112 14q265 32 265 154q0 89 -76.5 135.5t-224.5 46.5q-186 0 -282.5 -63t-104.5 -189h-141q12 191 139.5 286t370.5 95q155 0 250.5 -31t150.5 -100q33 -42 47.5 -96.5t14.5 -167.5v-60v-421q0 -72 13 -90.5 t46 -18.5q15 0 30.5 2.5t30.5 7.5l1 -123q-33 -10 -62.5 -15t-56.5 -5q-72 0 -105 38.5t-41 133.5q-89 -101 -199 -147t-266 -46q-197 0 -304 85t-107 241zM262 295q0 -88 76 -140.5t205 -52.5q201 0 326.5 94t125.5 244v17v131q-39 -22 -117.5 -40.5t-256.5 -45.5 q-235 -37 -297 -79.5t-62 -127.5zM307 1266q12 112 70.5 175.5t148.5 63.5q29 0 59 -8t70 -29l92 -47q9 -4 25 -12q59 -31 94 -31q48 0 77 32.5t40 96.5h98q-12 -112 -70.5 -176.5t-148.5 -64.5q-27 0 -56 8t-73 31l-94 47q-9 4 -23 11q-58 30 -94 30q-48 0 -77 -31.5 t-40 -95.5h-98z" />
<glyph unicode="&#xe4;" d="M119 299q0 72 28.5 130t85.5 101q45 33 122 55t263 48q41 5 112 14q265 32 265 154q0 89 -76.5 135.5t-224.5 46.5q-186 0 -282.5 -63t-104.5 -189h-141q12 191 139.5 286t370.5 95q155 0 250.5 -31t150.5 -100q33 -42 47.5 -96.5t14.5 -167.5v-60v-421q0 -72 13 -90.5 t46 -18.5q15 0 30.5 2.5t30.5 7.5l1 -123q-33 -10 -62.5 -15t-56.5 -5q-72 0 -105 38.5t-41 133.5q-89 -101 -199 -147t-266 -46q-197 0 -304 85t-107 241zM262 295q0 -88 76 -140.5t205 -52.5q201 0 326.5 94t125.5 244v17v131q-39 -22 -117.5 -40.5t-256.5 -45.5 q-235 -37 -297 -79.5t-62 -127.5zM360 1303v167h141v-167h-141zM887 1303v167h141v-167h-141z" />
<glyph unicode="&#xe5;" d="M119 299q0 72 28.5 130t85.5 101q45 33 122 55t263 48q41 5 112 14q265 32 265 154q0 89 -76.5 135.5t-224.5 46.5q-186 0 -282.5 -63t-104.5 -189h-141q12 191 139.5 286t370.5 95q155 0 250 -31t149 -98q35 -43 49.5 -98t14.5 -168v-60v-421q0 -72 13 -90.5t46 -18.5 q15 0 30.5 2.5t30.5 7.5l1 -123q-33 -10 -62.5 -15t-56.5 -5q-72 0 -105 38.5t-41 133.5q-89 -101 -199 -147t-266 -46q-197 0 -304 85t-107 241zM262 295q0 -88 76 -140.5t205 -52.5q201 0 326.5 94t125.5 244v17v131q-39 -22 -117.5 -40.5t-256.5 -45.5 q-235 -37 -297 -79.5t-62 -127.5zM463 1389q0 92 62 145t169 53t168.5 -53t61.5 -145q0 -93 -61.5 -146t-168.5 -53t-169 53t-62 146zM565 1389q0 -53 35 -85t92 -32q58 0 93.5 32t35.5 85t-35 84.5t-94 31.5t-93 -31t-34 -85z" />
<glyph unicode="&#xe6;" horiz-adv-x="2165" d="M59 289q0 72 29 130t86 101q45 33 121.5 55t263.5 48q41 5 111 14q266 32 266 154q0 89 -76 134.5t-225 45.5q-186 0 -283 -63t-104 -189h-139q12 191 139 287t368 96q180 0 283.5 -43.5t151.5 -138.5q88 105 199 154.5t257 49.5q263 0 420.5 -158.5t157.5 -424.5v-29 h-1004q12 -193 123 -303.5t291 -110.5q140 0 237 64.5t136 183.5h162q-43 -174 -186.5 -279.5t-336.5 -105.5q-167 0 -293.5 66.5t-195.5 189.5q-94 -130 -228.5 -193t-320.5 -63q-195 0 -302.5 86.5t-107.5 241.5zM205 287q0 -88 76.5 -140.5t205.5 -52.5q206 0 329.5 93.5 t123.5 248.5v10v134q-39 -22 -117.5 -40.5t-259.5 -45.5q-234 -37 -296 -79.5t-62 -127.5zM1085 631h834q-6 159 -120.5 258.5t-291.5 99.5q-173 0 -290.5 -99.5t-131.5 -258.5z" />
<glyph unicode="&#xe7;" horiz-adv-x="1251" d="M84 543q0 260 160 420.5t420 160.5q205 0 349.5 -110t172.5 -287h-148q-39 127 -137 194.5t-242 67.5q-192 0 -311 -123t-119 -323q0 -203 118 -323t317 -120q148 0 253.5 80.5t133.5 214.5h145q-23 -192 -171.5 -313t-360.5 -121q-260 0 -420 161t-160 421zM430 -401 l24 65q64 -18 116.5 -27.5t94.5 -9.5q72 0 108 24.5t36 72.5q0 39 -24.5 59t-72.5 20q-17 0 -39.5 -3.5t-72.5 -14.5l-41 31l104 184h80l-72 -127q21 6 43.5 9t42.5 3q87 0 135 -43t48 -121q0 -82 -62.5 -128t-175.5 -46q-55 0 -124 13t-148 39z" />
<glyph unicode="&#xe8;" horiz-adv-x="1319" d="M84 543q0 260 160 420.5t420 160.5q261 0 419 -158t158 -421v-33h-1003q12 -197 123 -304.5t303 -107.5q139 0 237.5 64.5t138.5 181.5h160q-43 -177 -187.5 -281t-348.5 -104q-261 0 -420.5 160t-159.5 422zM242 631h837q-12 162 -126 260t-289 98q-178 0 -293 -98 t-129 -260zM436 1538h187l176 -303h-121z" />
<glyph unicode="&#xe9;" horiz-adv-x="1319" d="M84 543q0 260 160 420.5t420 160.5q261 0 419 -158t158 -421v-33h-1003q12 -197 123 -304.5t303 -107.5q139 0 237.5 64.5t138.5 181.5h160q-43 -177 -187.5 -281t-348.5 -104q-261 0 -420.5 160t-159.5 422zM242 631h837q-12 162 -126 260t-289 98q-178 0 -293 -98 t-129 -260zM561 1235l176 303h187l-242 -303h-121z" />
<glyph unicode="&#xea;" horiz-adv-x="1319" d="M84 543q0 260 160 420.5t420 160.5q261 0 419 -158t158 -421v-33h-1003q12 -197 123 -304.5t303 -107.5q139 0 237.5 64.5t138.5 181.5h160q-43 -177 -187.5 -281t-348.5 -104q-261 0 -420.5 160t-159.5 422zM242 631h837q-12 162 -126 260t-289 98q-178 0 -293 -98 t-129 -260zM311 1235l285 303h168l285 -303h-158l-211 217l-211 -217h-158z" />
<glyph unicode="&#xeb;" horiz-adv-x="1319" d="M84 543q0 260 160 420.5t420 160.5q261 0 419 -158t158 -421v-33h-1003q12 -197 123 -304.5t303 -107.5q139 0 237.5 64.5t138.5 181.5h160q-43 -177 -187.5 -281t-348.5 -104q-261 0 -420.5 160t-159.5 422zM242 631h837q-12 162 -126 260t-289 98q-178 0 -293 -98 t-129 -260zM346 1303v167h141v-167h-141zM873 1303v167h141v-167h-141z" />
<glyph unicode="&#xec;" horiz-adv-x="461" d="M-13 1538h187l176 -303h-121zM160 0v1085h141v-1085h-141z" />
<glyph unicode="&#xed;" horiz-adv-x="461" d="M112 1235l176 303h187l-242 -303h-121zM160 0v1085h141v-1085h-141z" />
<glyph unicode="&#xee;" horiz-adv-x="461" d="M-138 1235l285 303h168l285 -303h-158l-211 217l-211 -217h-158zM160 0v1085h141v-1085h-141z" />
<glyph unicode="&#xef;" horiz-adv-x="461" d="M-103 1303v167h141v-167h-141zM160 0v1085h141v-1085h-141zM424 1303v167h141v-167h-141z" />
<glyph unicode="&#xf0;" d="M84 485q0 242 158.5 392.5t412.5 150.5q93 0 167.5 -18.5t121.5 -53.5q-66 99 -119.5 169t-95.5 112l-367 -147l-36 77l340 138q-45 49 -76 78t-60 51l84 86q52 -43 98 -85t89 -85l315 127l35 -78l-289 -115q195 -223 288 -413.5t93 -364.5q0 -242 -158.5 -392.5 t-412.5 -150.5q-264 0 -426 145t-162 377zM229 500q0 -182 118 -291t317 -109q197 0 315.5 109t118.5 291q0 181 -118.5 290t-315.5 109q-199 0 -317 -108.5t-118 -290.5z" />
<glyph unicode="&#xf1;" horiz-adv-x="1305" d="M150 0v1085h137v-200q79 110 194 166.5t260 56.5q215 0 316.5 -98.5t101.5 -307.5v-702h-141v610q0 207 -68 288t-233 81q-186 0 -306 -101t-120 -260v-618h-141zM301 1266q12 112 70.5 175.5t148.5 63.5q29 0 59 -8t70 -29l92 -47q9 -4 25 -12q59 -31 94 -31 q48 0 77 32.5t40 96.5h98q-12 -112 -70.5 -176.5t-148.5 -64.5q-27 0 -56 8t-73 31l-94 47q-9 4 -23 11q-58 30 -94 30q-48 0 -77 -31.5t-40 -95.5h-98z" />
<glyph unicode="&#xf2;" d="M84 543q0 260 160 420.5t420 160.5q259 0 420 -161t161 -420q0 -260 -161 -421t-420 -161q-260 0 -420 161t-160 421zM229 543q0 -203 118 -323t317 -120q198 0 316 120.5t118 322.5t-118 322t-316 120q-199 0 -317 -120t-118 -322zM420 1538h187l176 -303h-121z" />
<glyph unicode="&#xf3;" d="M84 543q0 260 160 420.5t420 160.5q259 0 420 -161t161 -420q0 -260 -161 -421t-420 -161q-260 0 -420 161t-160 421zM229 543q0 -203 118 -323t317 -120q198 0 316 120.5t118 322.5t-118 322t-316 120q-199 0 -317 -120t-118 -322zM545 1235l176 303h187l-242 -303h-121 z" />
<glyph unicode="&#xf4;" d="M84 543q0 260 160 420.5t420 160.5q259 0 420 -161t161 -420q0 -260 -161 -421t-420 -161q-260 0 -420 161t-160 421zM229 543q0 -203 118 -323t317 -120q198 0 316 120.5t118 322.5t-118 322t-316 120q-199 0 -317 -120t-118 -322zM295 1235l285 303h168l285 -303h-158 l-211 217l-211 -217h-158z" />
<glyph unicode="&#xf5;" d="M84 543q0 260 160 420.5t420 160.5q259 0 420 -161t161 -420q0 -260 -161 -421t-420 -161q-260 0 -420 161t-160 421zM229 543q0 -203 118 -323t317 -120q198 0 316 120.5t118 322.5t-118 322t-316 120q-199 0 -317 -120t-118 -322zM277 1266q12 112 70.5 175.5 t148.5 63.5q29 0 59 -8t70 -29l92 -47q9 -4 25 -12q59 -31 94 -31q48 0 77 32.5t40 96.5h98q-12 -112 -70.5 -176.5t-148.5 -64.5q-27 0 -56 8t-73 31l-94 47q-9 4 -23 11q-58 30 -94 30q-48 0 -77 -31.5t-40 -95.5h-98z" />
<glyph unicode="&#xf6;" d="M84 543q0 260 160 420.5t420 160.5q259 0 420 -161t161 -420q0 -260 -161 -421t-420 -161q-260 0 -420 161t-160 421zM229 543q0 -203 118 -323t317 -120q198 0 316 120.5t118 322.5t-118 322t-316 120q-199 0 -317 -120t-118 -322zM330 1303v167h141v-167h-141z M857 1303v167h141v-167h-141z" />
<glyph unicode="&#xf7;" horiz-adv-x="1706" d="M254 561v98h1198v-98h-1198zM748 258q0 44 31 75.5t75 31.5q45 0 76 -31t31 -76q0 -44 -31 -75t-76 -31t-75.5 31t-30.5 75zM748 963q0 44 31.5 76t74.5 32q44 0 75.5 -32t31.5 -76q0 -45 -31 -76t-76 -31t-75.5 30.5t-30.5 76.5z" />
<glyph unicode="&#xf8;" d="M84 543q0 260 160 420.5t420 160.5q119 0 218 -35t181 -106l123 125l55 -57l-125 -125q66 -81 97.5 -175t31.5 -208q0 -260 -161 -421t-420 -161q-113 0 -207.5 32t-177.5 99l-140 -139l-53 57l135 137q-71 83 -104 178t-33 218zM229 543q0 -90 24.5 -165.5t70.5 -127.5 l637 633q-57 52 -130 77t-167 25q-199 0 -317 -120t-118 -322zM379 195q48 -47 120 -71t165 -24q198 0 316 120.5t118 322.5q0 82 -21.5 153.5t-62.5 124.5z" />
<glyph unicode="&#xf9;" horiz-adv-x="1305" d="M150 383v702h141v-610q0 -206 68 -287.5t233 -81.5q186 0 306 101.5t120 259.5v618h141v-1085h-137v201q-80 -110 -195 -167t-260 -57q-214 0 -315.5 99t-101.5 307zM434 1538h187l176 -303h-121z" />
<glyph unicode="&#xfa;" horiz-adv-x="1305" d="M150 383v702h141v-610q0 -206 68 -287.5t233 -81.5q186 0 306 101.5t120 259.5v618h141v-1085h-137v201q-80 -110 -195 -167t-260 -57q-214 0 -315.5 99t-101.5 307zM559 1235l176 303h187l-242 -303h-121z" />
<glyph unicode="&#xfb;" horiz-adv-x="1305" d="M150 383v702h141v-610q0 -206 68 -287.5t233 -81.5q186 0 306 101.5t120 259.5v618h141v-1085h-137v201q-80 -110 -195 -167t-260 -57q-214 0 -315.5 99t-101.5 307zM309 1235l285 303h168l285 -303h-158l-211 217l-211 -217h-158z" />
<glyph unicode="&#xfc;" horiz-adv-x="1305" d="M150 383v702h141v-610q0 -206 68 -287.5t233 -81.5q186 0 306 101.5t120 259.5v618h141v-1085h-137v201q-80 -110 -195 -167t-260 -57q-214 0 -315.5 99t-101.5 307zM344 1303v167h141v-167h-141zM871 1303v167h141v-167h-141z" />
<glyph unicode="&#xfd;" horiz-adv-x="1104" d="M-25 1085h164l406 -940l409 940h158l-559 -1216q-75 -164 -149 -212t-205 -48q-25 0 -54.5 5t-68.5 15v135q45 -9 79.5 -13.5t59.5 -4.5q82 0 135.5 51t120.5 207zM434 1235l176 303h187l-242 -303h-121z" />
<glyph unicode="&#xfe;" horiz-adv-x="1384" d="M154 -389v1868h143v-584q82 111 186 163t244 52q259 0 417.5 -156.5t158.5 -410.5t-160 -412t-416 -158q-138 0 -242 51.5t-188 161.5v-575h-143zM297 543q0 -199 116 -316.5t312 -117.5t313 118t117 316q0 197 -117 315.5t-313 118.5t-312 -117.5t-116 -316.5z" />
<glyph unicode="&#xff;" horiz-adv-x="1104" d="M-25 1085h164l406 -940l409 940h158l-559 -1216q-75 -164 -149 -212t-205 -48q-25 0 -54.5 5t-68.5 15v135q45 -9 79.5 -13.5t59.5 -4.5q82 0 135.5 51t120.5 207zM219 1303v167h141v-167h-141zM746 1303v167h141v-167h-141z" />
<glyph unicode="&#x152;" horiz-adv-x="2570" d="M102 739q0 354 204.5 566.5t543.5 212.5q160 0 287 -59t200 -167v187h1137v-133h-989v-523h913v-139h-913v-534h989v-150h-1137v160q-89 -98 -213 -147.5t-282 -49.5q-335 0 -537.5 212t-202.5 564zM252 739q0 -291 163 -460.5t443 -169.5q71 0 132 10.5t112 32.5 q72 30 130 82t105 128v728q-70 141 -190 211.5t-289 70.5q-278 0 -442 -170.5t-164 -462.5z" />
<glyph unicode="&#x153;" horiz-adv-x="2324" d="M84 543q0 260 160 420.5t420 160.5q168 0 298 -69.5t205 -200.5q81 135 207 202.5t295 67.5q261 0 418.5 -158t157.5 -421v-33h-1003q8 -190 120 -302t293 -112q141 0 238.5 64.5t136.5 183.5h159q-39 -173 -183 -279t-337 -106q-167 0 -292 67.5t-210 202.5 q-80 -132 -208.5 -201t-294.5 -69q-260 0 -420 161t-160 421zM229 543q0 -203 118 -323t317 -120q198 0 316 120.5t118 322.5t-118 322t-316 120q-199 0 -317 -120t-118 -322zM1247 631h833q-9 162 -121.5 260t-289.5 98q-174 0 -291 -99.5t-131 -258.5z" />
<glyph unicode="&#x178;" horiz-adv-x="1473" d="M25 1479h188l522 -721l529 721h182l-637 -840v-639h-147v639zM403 1696v167h141v-167h-141zM930 1696v167h141v-167h-141z" />
<glyph unicode="&#x2c6;" horiz-adv-x="1024" d="M143 1235l285 303h168l285 -303h-158l-211 217l-211 -217h-158z" />
<glyph unicode="&#x2dc;" horiz-adv-x="1024" d="M125 1266q12 112 70.5 175.5t148.5 63.5q29 0 59 -8t70 -29l92 -47q9 -4 25 -12q59 -31 94 -31q48 0 77 32.5t40 96.5h98q-12 -112 -70.5 -176.5t-148.5 -64.5q-27 0 -56 8t-73 31l-94 47q-9 4 -23 11q-58 30 -94 30q-48 0 -77 -31.5t-40 -95.5h-98z" />
<glyph unicode="&#x2000;" horiz-adv-x="972" />
<glyph unicode="&#x2001;" horiz-adv-x="1944" />
<glyph unicode="&#x2002;" horiz-adv-x="972" />
<glyph unicode="&#x2003;" horiz-adv-x="1944" />
<glyph unicode="&#x2004;" horiz-adv-x="648" />
<glyph unicode="&#x2005;" horiz-adv-x="486" />
<glyph unicode="&#x2006;" horiz-adv-x="324" />
<glyph unicode="&#x2007;" horiz-adv-x="324" />
<glyph unicode="&#x2008;" horiz-adv-x="243" />
<glyph unicode="&#x2009;" horiz-adv-x="388" />
<glyph unicode="&#x200a;" horiz-adv-x="108" />
<glyph unicode="&#x2010;" horiz-adv-x="948" d="M113 477v131h723v-131h-723z" />
<glyph unicode="&#x2011;" horiz-adv-x="948" d="M113 477v131h723v-131h-723z" />
<glyph unicode="&#x2012;" horiz-adv-x="948" d="M113 477v131h723v-131h-723z" />
<glyph unicode="&#x2013;" horiz-adv-x="1024" d="M0 492v104h1024v-104h-1024z" />
<glyph unicode="&#x2014;" horiz-adv-x="2048" d="M0 492v104h2048v-104h-2048z" />
<glyph unicode="&#x2018;" horiz-adv-x="592" d="M213 1018v237q0 116 37.5 174t128.5 89v-97q-40 -21 -58 -53t-18 -84v-88h76v-178h-166z" />
<glyph unicode="&#x2019;" horiz-adv-x="592" d="M213 979v94q40 21 58 53t18 84v88h-76v181h166v-240q0 -114 -37.5 -172t-128.5 -88z" />
<glyph unicode="&#x201a;" horiz-adv-x="592" d="M213 0v180h166v-239q0 -115 -37.5 -172.5t-128.5 -87.5v94q40 21 58 53t18 84v88h-76z" />
<glyph unicode="&#x201c;" horiz-adv-x="924" d="M213 1018v237q0 116 37.5 174t128.5 89v-97q-40 -21 -58 -53t-18 -84v-88h76v-178h-166zM545 1018v237q0 116 37.5 174t128.5 89v-97q-41 -21 -58.5 -53t-17.5 -84v-88h76v-178h-166z" />
<glyph unicode="&#x201d;" horiz-adv-x="924" d="M213 979v94q40 21 58 53t18 84v88h-76v181h166v-240q0 -114 -37.5 -172t-128.5 -88zM545 979v94q40 21 58 53t18 84v88h-76v181h166v-240q0 -114 -37.5 -172t-128.5 -88z" />
<glyph unicode="&#x201e;" horiz-adv-x="924" d="M213 0v180h166v-239q0 -115 -37.5 -172.5t-128.5 -87.5v94q40 21 58 53t18 84v88h-76zM545 0v180h166v-239q0 -115 -37.5 -172.5t-128.5 -87.5v94q40 21 58 53t18 84v88h-76z" />
<glyph unicode="&#x2022;" horiz-adv-x="1208" d="M307 762q0 123 87 209t210 86q122 0 208.5 -86.5t86.5 -208.5t-87.5 -209.5t-209.5 -87.5q-123 0 -209 87t-86 210z" />
<glyph unicode="&#x2026;" horiz-adv-x="2048" d="M260 0v180h166v-180h-166zM942 0v180h166v-180h-166zM1626 0v180h166v-180h-166z" />
<glyph unicode="&#x202f;" horiz-adv-x="388" />
<glyph unicode="&#x2039;" horiz-adv-x="635" d="M129 442v201l358 272v-161l-276 -211l276 -211v-162z" />
<glyph unicode="&#x203a;" horiz-adv-x="635" d="M147 170v162l277 211l-277 211v161l359 -272v-201z" />
<glyph unicode="&#x205f;" horiz-adv-x="486" />
<glyph unicode="&#x2122;" horiz-adv-x="1706" d="M264 1397v57h430v-57h-172v-473h-82v473h-176zM821 924v530h117l166 -422l156 422h116v-530h-71v467l-177 -467h-49l-186 467v-467h-72z" />
<glyph unicode="&#x25fc;" horiz-adv-x="1085" d="M0 0v1085h1085v-1085h-1085z" />
</font>
</defs>
</svg>
